<?xml version="1.0" encoding="utf-8"?>
<!-- Generator: Adobe Illustrator 15.1.0, SVG Export Plug-In . SVG Version: 6.00 Build 0)  -->
<!DOCTYPE svg PUBLIC "-//W3C//DTD SVG 1.1//EN" "http://www.w3.org/Graphics/SVG/1.1/DTD/svg11.dtd">
<svg version="1.1" id="Layer_1" xmlns="http://www.w3.org/2000/svg" xmlns:xlink="http://www.w3.org/1999/xlink" x="0px" y="0px"
	 width="20.3px" height="35.118px" viewBox="111.611 55.769 20.3 35.118" enable-background="new 111.611 55.769 20.3 35.118"
	 xml:space="preserve">
<g>
	
		<rect x="111.861" y="56.019" fill="#F2F2F2" stroke="#FFFFFF" stroke-width="0.5" stroke-miterlimit="10" width="19.8" height="34.618"/>
	<text transform="matrix(0 -1 1 0 116.3953 85.0923)" font-family="'DroidSans'" font-size="4.6036">VCC</text>
	<text transform="matrix(0 -1 1 0 123.4578 85.0903)" font-family="'DroidSans'" font-size="4.6036">DO</text>
	<text transform="matrix(0 -1 1 0 130.6868 85.0903)" font-family="'DroidSans'" font-size="4.6036">GND</text>
	<text transform="matrix(0 -1 1 0 116.3953 70.207)" font-family="'DroidSans'" font-size="4.6036">VCC</text>
	<text transform="matrix(0 -1 1 0 123.4578 66.8887)" font-family="'DroidSans'" font-size="4.6036">DI</text>
	<text transform="matrix(0 -1 1 0 130.6868 71.9062)" font-family="'DroidSans'" font-size="4.6036">GND</text>
	
		<rect x="117.961" y="69.281" fill="#FFFFFF" stroke="#E6E6E6" stroke-width="0.25" stroke-miterlimit="10" width="7.958" height="7.823"/>
	<g>
		<rect x="118.314" y="77.104" fill="#808080" width="1.822" height="0.438"/>
		<rect x="118.314" y="68.844" fill="#808080" width="1.822" height="0.438"/>
	</g>
	<g>
		<rect x="121.03" y="77.104" fill="#808080" width="1.821" height="0.438"/>
		<rect x="121.03" y="68.844" fill="#808080" width="1.821" height="0.438"/>
	</g>
	<circle fill="#E6E6E6" cx="121.94" cy="73.192" r="3.062"/>
	<circle opacity="0.42" fill="#FFFFFF" cx="121.94" cy="73.192" r="2.505"/>
	<g>
		<rect x="123.745" y="77.104" fill="#808080" width="1.822" height="0.438"/>
		<rect x="123.745" y="68.844" fill="#808080" width="1.822" height="0.438"/>
	</g>
	<g id="Z11xpin_1_">
		<path fill="#C2B6AC" d="M114.57,86.821c0.661,0,1.196,0.535,1.196,1.195h1.196c0-1.32-1.071-2.393-2.393-2.393
			s-2.393,1.072-2.393,2.393h1.195C113.372,87.356,113.908,86.821,114.57,86.821z"/>
		<path fill="#C2B6AC" d="M114.57,90.411c1.321,0,2.393-1.072,2.393-2.395h-1.196c0,0.662-0.535,1.197-1.196,1.197
			s-1.197-0.535-1.197-1.197h-1.195C112.177,89.338,113.248,90.411,114.57,90.411z"/>
		<circle fill="#392F26" cx="114.57" cy="88.017" r="1.196"/>
	</g>
	<g id="Z11xpin_2_">
		<path fill="#C2B6AC" d="M121.778,86.821c0.661,0,1.196,0.535,1.196,1.195h1.196c0-1.32-1.071-2.393-2.393-2.393
			s-2.393,1.072-2.393,2.393h1.195C120.58,87.356,121.116,86.821,121.778,86.821z"/>
		<path fill="#C2B6AC" d="M121.778,90.411c1.321,0,2.393-1.072,2.393-2.395h-1.196c0,0.662-0.535,1.197-1.196,1.197
			s-1.197-0.535-1.197-1.197h-1.195C119.385,89.338,120.456,90.411,121.778,90.411z"/>
		<circle fill="#392F26" cx="121.778" cy="88.017" r="1.196"/>
	</g>
	<g id="Z11xpin_3_">
		<path fill="#C2B6AC" d="M128.969,86.821c0.661,0,1.196,0.535,1.196,1.195h1.196c0-1.32-1.071-2.393-2.393-2.393
			s-2.393,1.072-2.393,2.393h1.195C127.772,87.356,128.308,86.821,128.969,86.821z"/>
		<path fill="#C2B6AC" d="M128.969,90.411c1.321,0,2.393-1.072,2.393-2.395h-1.196c0,0.662-0.535,1.197-1.196,1.197
			s-1.197-0.535-1.197-1.197h-1.195C126.577,89.338,127.648,90.411,128.969,90.411z"/>
		<circle fill="#392F26" cx="128.969" cy="88.017" r="1.196"/>
	</g>
	<g id="Z11xpin_6_">
		<path fill="#C2B6AC" d="M114.57,58.02c0.661,0,1.196,0.535,1.196,1.196h1.196c0-1.321-1.071-2.393-2.393-2.393
			s-2.393,1.071-2.393,2.393h1.195C113.372,58.555,113.908,58.02,114.57,58.02z"/>
		<path fill="#C2B6AC" d="M114.57,61.609c1.321,0,2.393-1.072,2.393-2.394h-1.196c0,0.661-0.535,1.196-1.196,1.196
			s-1.197-0.535-1.197-1.196h-1.195C112.177,60.537,113.248,61.609,114.57,61.609z"/>
		<circle fill="#392F26" cx="114.57" cy="59.216" r="1.196"/>
	</g>
	<g id="Z11xpin_5_">
		<path fill="#C2B6AC" d="M121.778,58.02c0.661,0,1.196,0.535,1.196,1.196h1.196c0-1.321-1.071-2.393-2.393-2.393
			s-2.393,1.071-2.393,2.393h1.195C120.58,58.555,121.116,58.02,121.778,58.02z"/>
		<path fill="#C2B6AC" d="M121.778,61.609c1.321,0,2.393-1.072,2.393-2.394h-1.196c0,0.661-0.535,1.196-1.196,1.196
			s-1.197-0.535-1.197-1.196h-1.195C119.385,60.537,120.456,61.609,121.778,61.609z"/>
		<circle fill="#392F26" cx="121.778" cy="59.216" r="1.196"/>
	</g>
	<g id="Z11xpin_4_">
		<path fill="#C2B6AC" d="M128.969,58.02c0.661,0,1.196,0.535,1.196,1.196h1.196c0-1.321-1.071-2.393-2.393-2.393
			s-2.393,1.071-2.393,2.393h1.195C127.772,58.555,128.308,58.02,128.969,58.02z"/>
		<path fill="#C2B6AC" d="M128.969,61.609c1.321,0,2.393-1.072,2.393-2.394h-1.196c0,0.661-0.535,1.196-1.196,1.196
			s-1.197-0.535-1.197-1.196h-1.195C126.577,60.537,127.648,61.609,128.969,61.609z"/>
		<circle fill="#392F26" cx="128.969" cy="59.216" r="1.196"/>
	</g>
</g>
</svg>
